<?xml version="1.0" encoding="utf-8" ?>
<svg xmlns="http://www.w3.org/2000/svg" viewBox="207 662 160 222">
  <path fill="#CC8253" fill-rule="evenodd" d="M207.304 662.33L256.055 662.416C280.1 662.309 306.551 659.163 323.097 680.747C330.118 689.889 333.13 701.488 331.443 712.89C329.746 725.206 323.683 734.045 313.973 741.417C321.504 743.219 330.325 747.307 336.837 751.468C350.721 760.285 360.515 774.276 364.045 790.339C368.111 809.083 364.473 828.675 353.949 844.71C351.535 848.23 348.806 851.523 345.796 854.548C322.159 878.32 291.155 874.029 260.385 873.974L207.526 873.997C206.663 803.821 207.805 732.701 207.304 662.33Z M226.003 680.5L261.787 680.467C276.671 680.455 294.568 678.509 306.203 689.587C316.392 699.289 315.397 716.71 305.685 726.36C294.57 737.403 278.48 736.016 264.063 735.944C255.828 735.882 247.594 735.874 239.359 735.921L239.422 753.135C276.784 753.731 324.122 745.381 343.359 785.705C353.922 813.405 339.818 847.022 309.888 853.858C297.066 856.787 280.84 855.706 267.455 855.622L226.105 855.539L226.003 680.5Z"/>
</svg>
