<?xml version="1.0" encoding="utf-8" ?><svg xmlns="http://www.w3.org/2000/svg" xmlns:xlink="http://www.w3.org/1999/xlink" width="1024" height="1024" viewBox="0 0 1024 1024"><path fill="#1E1E1F" d="M0 0L1024 0L1024 511.988L1024 1024L0 1024L0 512.008L0 0Z"/><path fill="#FEFEFE" d="M0 0L1024 0L1024 511.988L0 512.008L0 0Z"/><path fill="#CC8253" d="M260.687 148.253C285.036 148.128 308.023 146.808 323.247 169.588C329.693 179.371 331.943 191.331 329.493 202.787C327.222 213.543 321.432 221.699 312.254 227.617C315.566 228.658 318.761 229.732 321.983 230.887C358.487 243.977 374.286 283.814 359.901 319.248C352.298 337.976 341.926 348.365 323.375 356.545C304.402 363.119 287.253 361.713 267.587 361.672L206.905 361.505C206.488 319.907 206.36 278.306 206.519 236.706C206.504 208.033 205.884 176.949 206.65 148.439L260.687 148.253Z"/><path fill="#FEFEFE" d="M225.08 166.972C236.344 166.771 247.61 166.71 258.876 166.788C274.226 166.818 293.122 164.936 305.176 176.212C315.209 185.596 313.897 202.95 304.29 212.148C292.744 223.202 277.41 222.056 262.68 222.058L238.525 222.034L238.548 239.715C254.78 239.587 271.13 239.273 287.368 239.753C311.791 240.475 332.288 250.122 343.035 273.127C345.072 279.277 346.581 284.336 346.541 290.869C346.494 314.113 332.415 335.746 309.165 341.343C296.645 344.358 281.892 343.475 268.906 343.467L225.029 343.454L225.08 166.972Z"/><path fill="#CC8253" d="M703.745 203.528C748.054 201.359 785.709 235.566 787.793 279.878C789.877 324.191 755.598 361.781 711.282 363.78C667.085 365.775 629.618 331.608 627.54 287.415C625.462 243.222 659.556 205.69 703.745 203.528Z"/><path fill="#FEFEFE" d="M702.102 221.292C736.483 218.101 766.948 243.37 770.167 277.748C773.386 312.127 748.142 342.612 713.766 345.859C679.351 349.109 648.823 323.83 645.6 289.412C642.378 254.994 667.682 224.487 702.102 221.292Z"/><path fill="#CC8253" d="M443.286 204.201C448.401 203.456 458.713 204.045 463.784 204.832C482.8 207.864 499.818 218.365 511.057 234.001C501.237 244.856 489.493 255.138 479.064 265.449C456.716 287.547 433.941 308.599 412.132 331.3C434.548 348.441 463.439 350.279 487.1 333.539C489.523 331.825 496.659 324.369 497.725 323.951L499.483 325.226C503.278 328.936 506.62 332.219 510.188 336.167C499.423 350.592 479.404 360.109 461.8 362.144C439.421 364.921 416.874 358.49 399.327 344.325C382.889 331.019 372.795 310.346 370.782 289.494C368.968 268.697 375.51 248.034 388.963 232.072C402.792 215.362 421.905 206.263 443.286 204.201Z"/><path fill="#FEFEFE" d="M447.121 221.708C462.378 221.019 474.721 225.597 487.121 234.004C476.16 243.634 464.65 255.442 454.158 265.658L414.33 303.99C409.529 308.795 404.631 313.504 399.641 318.113C393.551 307.894 389.682 299.387 388.762 287.257C387.494 270.967 392.726 254.837 403.314 242.393C414.889 228.921 429.779 223.026 447.121 221.708Z"/><path fill="#CC8253" d="M578.039 204.201C578.673 204.134 579.308 204.082 579.944 204.043C602.94 202.567 620.668 209.668 637.526 224.703C634.176 228.941 628.95 233.887 625.039 237.8C618.646 232.127 614.088 228.34 605.95 225.281C591.466 219.862 575.431 220.364 561.314 226.679C546.021 233.532 534.068 246.168 528.075 261.819C509.514 311.727 559.495 362.052 609.371 338.984C615.66 335.735 619.78 331.936 624.855 327.102C629.468 331.42 633.499 335.17 637.574 340.029C626.249 352.368 610.869 360.228 594.235 362.178C573.902 364.371 551.212 358.862 535.406 345.643C481.129 300.25 506.271 211.084 578.039 204.201Z"/><path fill="#CC8253" d="M796.389 153.058C814.955 151.687 818.73 172.294 812.329 185.962C810.278 190.343 806.614 192.206 802.103 193.371C793.516 193.989 786.253 189.974 784.23 181.418C781.473 169.76 783.328 156.568 796.389 153.058Z"/><path fill="#FEFEFE" d="M796.463 157.604C801.777 157.174 806.712 158.459 808.6 163.825C811.742 172.753 811.54 185.072 801.788 189.242C788.303 190.411 786.046 173.016 789.894 163.524C791.26 160.154 793.201 158.896 796.463 157.604Z"/><path fill="#CC8253" d="M770.739 152.17C772.93 152.095 772.714 152.063 774.007 153.47L773.925 154.533C767.625 161.885 756.854 151.834 751.701 175.378C752.796 174.045 754.281 172.115 755.752 171.258C761.834 167.715 772.415 168.272 775.845 175.296C777.629 178.951 776.683 183.041 775.365 186.706C767.914 198.253 748.983 194.701 747.004 180.025C746.146 173.611 747.853 167.118 751.756 161.957C756.585 155.67 763.201 153.129 770.739 152.17Z"/><path fill="#FEFEFE" d="M761.989 173.139C775.035 172.938 775.854 185.073 764.411 189.003C750.396 189.58 749.038 175.661 761.989 173.139Z"/><path fill="#CC8253" d="M714.913 153.069C720.967 153.167 726.978 152.987 733.029 152.892C735.722 152.85 738.583 152.459 739.21 155.463C738.018 159.146 730.432 166.175 727.36 168.837C728.117 168.964 728.872 169.103 729.625 169.253C749.499 173.246 743.166 198.285 717.792 191.732C715.809 190.926 715.504 190.788 713.758 189.585C713.395 187.957 713.398 188.781 713.988 187.039C717.068 185.534 720.061 187.873 723.208 188.684C727.957 189.907 734.345 187.745 735.77 182.589C738.612 172.304 722.661 173.723 721.136 171.32C722.334 167.41 729.292 160.776 732.371 157.514C728.875 157.541 717.918 157.851 714.892 157.309C714.44 155.578 714.72 154.921 714.913 153.069Z"/><path fill="#CC8253" d="M207.304 662.33L256.055 662.416C280.1 662.309 306.551 659.163 323.097 680.747C330.118 689.889 333.13 701.488 331.443 712.89C329.746 725.206 323.683 734.045 313.973 741.417C321.504 743.219 330.325 747.307 336.837 751.468C350.721 760.285 360.515 774.276 364.045 790.339C368.111 809.083 364.473 828.675 353.949 844.71C351.535 848.23 348.806 851.523 345.796 854.548C322.159 878.32 291.155 874.029 260.385 873.974L207.526 873.997C206.663 803.821 207.805 732.701 207.304 662.33Z"/><path fill="#1E1E1F" d="M226.003 680.5L261.787 680.467C276.671 680.455 294.568 678.509 306.203 689.587C316.392 699.289 315.397 716.71 305.685 726.36C294.57 737.403 278.48 736.016 264.063 735.944C255.828 735.882 247.594 735.874 239.359 735.921L239.422 753.135C276.784 753.731 324.122 745.381 343.359 785.705C353.922 813.405 339.818 847.022 309.888 853.858C297.066 856.787 280.84 855.706 267.455 855.622L226.105 855.539L226.003 680.5Z"/><path fill="#CC8253" d="M696.292 718.468C739.92 712.717 779.907 743.538 785.455 787.193C791.003 830.847 759.997 870.691 716.316 876.036C672.923 881.345 633.397 850.586 627.886 807.217C622.374 763.849 652.949 724.181 696.292 718.468Z"/><path fill="#1E1E1F" d="M704.106 735.713C738.146 734.304 766.886 760.749 768.31 794.788C769.733 828.828 743.301 857.58 709.262 859.018C675.202 860.457 646.429 834.005 645.004 799.945C643.58 765.885 670.045 737.122 704.106 735.713Z"/><path fill="#CC8253" d="M442.203 718.694C445.643 718.172 455.3 718.391 458.741 718.823C481.781 721.715 498.762 730.939 513.132 748.882C498.808 763.496 484.986 776.484 470.261 790.6C451.436 808.825 432.472 826.907 413.372 844.844C425.433 855.151 441.151 859.333 456.787 858.088C473.755 856.737 486.454 849.416 497.457 836.706C501.664 839.737 506.753 845.333 510.35 849.246C483.211 881.128 434.079 883.964 401.706 858.452C345.707 814.32 370.244 726.583 442.203 718.694Z"/><path fill="#1E1E1F" d="M448.273 736.218C464.85 736.062 474.899 739.235 487.854 749.313C483.889 753.84 479.72 757.914 475.313 762.003C455.427 780.454 436.252 799.752 416.509 818.336C412.24 822.39 405.18 829.198 400.568 832.472C376.449 798.307 392.119 749.195 432.942 738.324C438.413 736.867 442.631 736.482 448.273 736.218Z"/><path fill="#CC8253" d="M576.737 718.694C578.164 718.471 581.977 718.422 583.522 718.382C603.582 717.694 623.059 725.204 637.466 739.181C633.986 743.123 628.641 748.256 624.843 752.113C606.956 737.025 585.989 731.121 563.51 739.974C548.586 746.004 536.594 757.606 530.075 772.323C509.29 820.246 556.068 874.045 606.814 853.383C614.377 849.774 618.427 846.7 624.43 840.897C628.848 844.881 633.374 848.832 637.161 853.412C612.809 881.423 565.561 882.022 537.415 859.417C483.204 815.88 505.492 726.425 576.737 718.694Z"/><path fill="#CC8253" d="M796.632 669.12C815.185 667.135 819.173 687.891 812.989 701.3C810.986 705.643 807.577 707.584 803.183 708.92C800.35 709.039 797.772 709.302 794.973 708.303C783.625 704.257 782.151 687.869 786.055 678.118C788.096 673.02 791.735 670.943 796.632 669.12Z"/><path fill="#1E1E1F" d="M800.143 672.644C806.458 673.282 809.895 677.544 810.519 683.686C811.502 693.36 811.127 703.333 799.696 704.878C793.603 704.343 790.183 700.974 789.472 694.847C788.349 685.167 788.642 674.51 800.143 672.644Z"/><path fill="#CC8253" d="M774.12 667.675C774.983 668.295 774.6 668.003 775.072 669.299C773.089 673.966 760.406 669.327 753.356 688.924C756.709 687.113 759.04 685.649 762.931 685.29C776.001 684.082 782.191 695.048 773.673 705.381C769.009 708.966 760.865 710.354 755.68 707.203C746.545 701.653 747.598 686.081 753.104 678.31C758.113 671.241 766.093 669.051 774.12 667.675Z"/><path fill="#1E1E1F" d="M763.47 688.644C765.813 688.691 767.813 688.784 769.835 690.132C771.641 691.313 772.841 693.225 773.12 695.365C773.928 701.722 768.938 704.165 763.609 704.869C749.886 703.864 750.983 690.663 763.47 688.644Z"/><path fill="#CC8253" d="M715.642 669.103C720.145 669.079 737.009 668.375 740.061 670.079L740.26 671.068C737.988 675.658 731.232 680.675 728.141 685.415C751.469 688.108 743.311 715.133 719.216 707.314C717.318 706.37 716.412 706.088 715.524 704.178C715.804 702.376 715.405 703.162 717.021 701.884C723.331 703.941 727.969 706.971 734.563 702.567C738.838 699.713 738.196 695.761 735.892 691.964C732.863 686.971 723.363 690.417 721.569 688.145C722.254 684.859 730.531 676.259 733.218 673.042C728.565 673.065 720.408 673.342 716.041 672.814C715.344 671.544 715.634 670.784 715.642 669.103Z"/></svg>