<?xml version="1.0" encoding="utf-8" ?>
<svg xmlns="http://www.w3.org/2000/svg" viewBox="0 0 1024 512" width="1024" height="512">
  <!-- B -->
  <path fill="#CC8253" d="M260.687 148.253C285.036 148.128 308.023 146.808 323.247 169.588C329.693 179.371 331.943 191.331 329.493 202.787C327.222 213.543 321.432 221.699 312.254 227.617C315.566 228.658 318.761 229.732 321.983 230.887C358.487 243.977 374.286 283.814 359.901 319.248C352.298 337.976 341.926 348.365 323.375 356.545C304.402 363.119 287.253 361.713 267.587 361.672L206.905 361.505C206.488 319.907 206.36 278.306 206.519 236.706C206.504 208.033 205.884 176.949 206.65 148.439L260.687 148.253Z"/>
  <path fill="#FEFEFE" d="M225.08 166.972C236.344 166.771 247.61 166.71 258.876 166.788C274.226 166.818 293.122 164.936 305.176 176.212C315.209 185.596 313.897 202.95 304.29 212.148C292.744 223.202 277.41 222.056 262.68 222.058L238.525 222.034L238.548 239.715C254.78 239.587 271.13 239.273 287.368 239.753C311.791 240.475 332.288 250.122 343.035 273.127C345.072 279.277 346.581 284.336 346.541 290.869C346.494 314.113 332.415 335.746 309.165 341.343C296.645 344.358 281.892 343.475 268.906 343.467L225.029 343.454L225.08 166.972Z"/>
  <!-- e -->
  <path fill="#CC8253" d="M443.286 204.201C448.401 203.456 458.713 204.045 463.784 204.832C482.8 207.864 499.818 218.365 511.057 234.001C501.237 244.856 489.493 255.138 479.064 265.449C456.716 287.547 433.941 308.599 412.132 331.3C434.548 348.441 463.439 350.279 487.1 333.539C489.523 331.825 496.659 324.369 497.725 323.951L499.483 325.226C503.278 328.936 506.62 332.219 510.188 336.167C499.423 350.592 479.404 360.109 461.8 362.144C439.421 364.921 416.874 358.49 399.327 344.325C382.889 331.019 372.795 310.346 370.782 289.494C368.968 268.697 375.51 248.034 388.963 232.072C402.792 215.362 421.905 206.263 443.286 204.201Z"/>
  <path fill="#FEFEFE" d="M447.121 221.708C462.378 221.019 474.721 225.597 487.121 234.004C476.16 243.634 464.65 255.442 454.158 265.658L414.33 303.99C409.529 308.795 404.631 313.504 399.641 318.113C393.551 307.894 389.682 299.387 388.762 287.257C387.494 270.967 392.726 254.837 403.314 242.393C414.889 228.921 429.779 223.026 447.121 221.708Z"/>
  <!-- c -->
  <path fill="#CC8253" d="M578.039 204.201C578.673 204.134 579.308 204.082 579.944 204.043C602.94 202.567 620.668 209.668 637.526 224.703C634.176 228.941 628.95 233.887 625.039 237.8C618.646 232.127 614.088 228.34 605.95 225.281C591.466 219.862 575.431 220.364 561.314 226.679C546.021 233.532 534.068 246.168 528.075 261.819C509.514 311.727 559.495 362.052 609.371 338.984C615.66 335.735 619.78 331.936 624.855 327.102C629.468 331.42 633.499 335.17 637.574 340.029C626.249 352.368 610.869 360.228 594.235 362.178C573.902 364.371 551.212 358.862 535.406 345.643C481.129 300.25 506.271 211.084 578.039 204.201Z"/>
  <!-- o -->
  <path fill="#CC8253" d="M703.745 203.528C748.054 201.359 785.709 235.566 787.793 279.878C789.877 324.191 755.598 361.781 711.282 363.78C667.085 365.775 629.618 331.608 627.54 287.415C625.462 243.222 659.556 205.69 703.745 203.528Z"/>
  <path fill="#FEFEFE" d="M702.102 221.292C736.483 218.101 766.948 243.37 770.167 277.748C773.386 312.127 748.142 342.612 713.766 345.859C679.351 349.109 648.823 323.83 645.6 289.412C642.378 254.994 667.682 224.487 702.102 221.292Z"/>
  <!-- 360 superscript -->
  <path fill="#CC8253" d="M796.389 153.058C814.955 151.687 818.73 172.294 812.329 185.962C810.278 190.343 806.614 192.206 802.103 193.371C793.516 193.989 786.253 189.974 784.23 181.418C781.473 169.76 783.328 156.568 796.389 153.058Z"/>
  <path fill="#FEFEFE" d="M796.463 157.604C801.777 157.174 806.712 158.459 808.6 163.825C811.742 172.753 811.54 185.072 801.788 189.242C788.303 190.411 786.046 173.016 789.894 163.524C791.26 160.154 793.201 158.896 796.463 157.604Z"/>
  <path fill="#CC8253" d="M770.739 152.17C772.93 152.095 772.714 152.063 774.007 153.47L773.925 154.533C767.625 161.885 756.854 151.834 751.701 175.378C752.796 174.045 754.281 172.115 755.752 171.258C761.834 167.715 772.415 168.272 775.845 175.296C777.629 178.951 776.683 183.041 775.365 186.706C767.914 198.253 748.983 194.701 747.004 180.025C746.146 173.611 747.853 167.118 751.756 161.957C756.585 155.67 763.201 153.129 770.739 152.17Z"/>
  <path fill="#FEFEFE" d="M761.989 173.139C775.035 172.938 775.854 185.073 764.411 189.003C750.396 189.58 749.038 175.661 761.989 173.139Z"/>
  <path fill="#CC8253" d="M714.913 153.069C720.967 153.167 726.978 152.987 733.029 152.892C735.722 152.85 738.583 152.459 739.21 155.463C738.018 159.146 730.432 166.175 727.36 168.837C728.117 168.964 728.872 169.103 729.625 169.253C749.499 173.246 743.166 198.285 717.792 191.732C715.809 190.926 715.504 190.788 713.758 189.585C713.395 187.957 713.398 188.781 713.988 187.039C717.068 185.534 720.061 187.873 723.208 188.684C727.957 189.907 734.345 187.745 735.77 182.589C738.612 172.304 722.661 173.723 721.136 171.32C722.334 167.41 729.292 160.776 732.371 157.514C728.875 157.541 717.918 157.851 714.892 157.309C714.44 155.578 714.72 154.921 714.913 153.069Z"/>
</svg>
