<?xml version="1.0" encoding="utf-8" ?>
<svg xmlns="http://www.w3.org/2000/svg" viewBox="0 512 1024 512" width="1024" height="512">
  <!-- B -->
  <path fill="#CC8253" d="M207.304 662.33L256.055 662.416C280.1 662.309 306.551 659.163 323.097 680.747C330.118 689.889 333.13 701.488 331.443 712.89C329.746 725.206 323.683 734.045 313.973 741.417C321.504 743.219 330.325 747.307 336.837 751.468C350.721 760.285 360.515 774.276 364.045 790.339C368.111 809.083 364.473 828.675 353.949 844.71C351.535 848.23 348.806 851.523 345.796 854.548C322.159 878.32 291.155 874.029 260.385 873.974L207.526 873.997C206.663 803.821 207.805 732.701 207.304 662.33Z"/>
  <path fill="#1E1E1F" d="M226.003 680.5L261.787 680.467C276.671 680.455 294.568 678.509 306.203 689.587C316.392 699.289 315.397 716.71 305.685 726.36C294.57 737.403 278.48 736.016 264.063 735.944C255.828 735.882 247.594 735.874 239.359 735.921L239.422 753.135C276.784 753.731 324.122 745.381 343.359 785.705C353.922 813.405 339.818 847.022 309.888 853.858C297.066 856.787 280.84 855.706 267.455 855.622L226.105 855.539L226.003 680.5Z"/>
  <!-- e -->
  <path fill="#CC8253" d="M442.203 718.694C445.643 718.172 455.3 718.391 458.741 718.823C481.781 721.715 498.762 730.939 513.132 748.882C498.808 763.496 484.986 776.484 470.261 790.6C451.436 808.825 432.472 826.907 413.372 844.844C425.433 855.151 441.151 859.333 456.787 858.088C473.755 856.737 486.454 849.416 497.457 836.706C501.664 839.737 506.753 845.333 510.35 849.246C483.211 881.128 434.079 883.964 401.706 858.452C345.707 814.32 370.244 726.583 442.203 718.694Z"/>
  <path fill="#1E1E1F" d="M448.273 736.218C464.85 736.062 474.899 739.235 487.854 749.313C483.889 753.84 479.72 757.914 475.313 762.003C455.427 780.454 436.252 799.752 416.509 818.336C412.24 822.39 405.18 829.198 400.568 832.472C376.449 798.307 392.119 749.195 432.942 738.324C438.413 736.867 442.631 736.482 448.273 736.218Z"/>
  <!-- c -->
  <path fill="#CC8253" d="M576.737 718.694C578.164 718.471 581.977 718.422 583.522 718.382C603.582 717.694 623.059 725.204 637.466 739.181C633.986 743.123 628.641 748.256 624.843 752.113C606.956 737.025 585.989 731.121 563.51 739.974C548.586 746.004 536.594 757.606 530.075 772.323C509.29 820.246 556.068 874.045 606.814 853.383C614.377 849.774 618.427 846.7 624.43 840.897C628.848 844.881 633.374 848.832 637.161 853.412C612.809 881.423 565.561 882.022 537.415 859.417C483.204 815.88 505.492 726.425 576.737 718.694Z"/>
  <!-- o -->
  <path fill="#CC8253" d="M696.292 718.468C739.92 712.717 779.907 743.538 785.455 787.193C791.003 830.847 759.997 870.691 716.316 876.036C672.923 881.345 633.397 850.586 627.886 807.217C622.374 763.849 652.949 724.181 696.292 718.468Z"/>
  <path fill="#1E1E1F" d="M704.106 735.713C738.146 734.304 766.886 760.749 768.31 794.788C769.733 828.828 743.301 857.58 709.262 859.018C675.202 860.457 646.429 834.005 645.004 799.945C643.58 765.885 670.045 737.122 704.106 735.713Z"/>
  <!-- 360 superscript -->
  <path fill="#CC8253" d="M796.632 669.12C815.185 667.135 819.173 687.891 812.989 701.3C810.986 705.643 807.577 707.584 803.183 708.92C800.35 709.039 797.772 709.302 794.973 708.303C783.625 704.257 782.151 687.869 786.055 678.118C788.096 673.02 791.735 670.943 796.632 669.12Z"/>
  <path fill="#1E1E1F" d="M800.143 672.644C806.458 673.282 809.895 677.544 810.519 683.686C811.502 693.36 811.127 703.333 799.696 704.878C793.603 704.343 790.183 700.974 789.472 694.847C788.349 685.167 788.642 674.51 800.143 672.644Z"/>
  <path fill="#CC8253" d="M774.12 667.675C774.983 668.295 774.6 668.003 775.072 669.299C773.089 673.966 760.406 669.327 753.356 688.924C756.709 687.113 759.04 685.649 762.931 685.29C776.001 684.082 782.191 695.048 773.673 705.381C769.009 708.966 760.865 710.354 755.68 707.203C746.545 701.653 747.598 686.081 753.104 678.31C758.113 671.241 766.093 669.051 774.12 667.675Z"/>
  <path fill="#1E1E1F" d="M763.47 688.644C765.813 688.691 767.813 688.784 769.835 690.132C771.641 691.313 772.841 693.225 773.12 695.365C773.928 701.722 768.938 704.165 763.609 704.869C749.886 703.864 750.983 690.663 763.47 688.644Z"/>
  <path fill="#CC8253" d="M715.642 669.103C720.145 669.079 737.009 668.375 740.061 670.079L740.26 671.068C737.988 675.658 731.232 680.675 728.141 685.415C751.469 688.108 743.311 715.133 719.216 707.314C717.318 706.37 716.412 706.088 715.524 704.178C715.804 702.376 715.405 703.162 717.021 701.884C723.331 703.941 727.969 706.971 734.563 702.567C738.838 699.713 738.196 695.761 735.892 691.964C732.863 686.971 723.363 690.417 721.569 688.145C722.254 684.859 730.531 676.259 733.218 673.042C728.565 673.065 720.408 673.342 716.041 672.814C715.344 671.544 715.634 670.784 715.642 669.103Z"/>
</svg>
