<svg xmlns="http://www.w3.org/2000/svg" viewBox="3.10 25.00 203.40 79.00" fill="#cc8354">
  <path d="M17.10 100L6.10 100L6.10 28L17.10 28L17.10 57.30Q19.70 54.40 23.45 52.70Q27.20 51 31.80 51Q38.30 51 43.55 54.35Q48.80 57.70 51.85 63.35Q54.90 69 54.90 76.10Q54.90 83.10 51.85 88.75Q48.80 94.40 43.55 97.70Q38.30 101 31.80 101Q27.20 101 23.45 99.35Q19.70 97.70 17.10 94.80L17.10 100M30 90.60Q36 90.60 39.80 86.50Q43.60 82.40 43.60 76Q43.60 69.50 39.80 65.45Q36 61.40 30 61.40Q23.90 61.40 20.15 65.45Q16.40 69.50 16.40 76Q16.40 82.40 20.15 86.50Q23.90 90.60 30 90.60 M83.40 101Q76.20 101 70.45 97.75Q64.70 94.50 61.35 88.80Q58 83.10 58 76Q58 68.90 61.30 63.25Q64.60 57.60 70.25 54.30Q75.90 51 82.80 51Q89.50 51 94.65 54.10Q99.80 57.20 102.75 62.60Q105.70 68 105.70 74.90Q105.70 77.10 105.10 80.10L69.30 80.10Q70.50 85 74.20 87.85Q77.90 90.70 83.30 90.70Q87 90.70 90.15 89.40Q93.30 88.10 95.50 85.60L102.50 92.70Q99 96.80 94 98.90Q89 101 83.40 101M82.60 61.10Q77.50 61.10 74 63.75Q70.50 66.40 69.30 71.10L94.90 71.10Q92.80 61.10 82.60 61.10 M133.60 101Q126.50 101 120.75 97.70Q115 94.40 111.70 88.70Q108.40 83 108.40 76Q108.40 68.90 111.70 63.25Q115 57.60 120.75 54.30Q126.50 51 133.60 51Q139.20 51 144.05 53.15Q148.90 55.30 152.30 59.30L145.10 66.60Q140.90 61.60 133.60 61.60Q127.50 61.60 123.60 65.60Q119.70 69.60 119.70 76Q119.70 82.40 123.60 86.40Q127.50 90.40 133.60 90.40Q140.90 90.40 145.10 85.40L152.30 92.70Q148.90 96.70 144.05 98.85Q139.20 101 133.60 101"/>
  <g stroke="#cc8354" fill="none"><circle cx="178.50" cy="76.00" r="19.25" stroke-width="11.5"/></g>
  <g stroke="#cc8354"><line x1="178.50" y1="76.00" x2="188.13" y2="76.00" stroke-width="3.91" stroke-linecap="round"/><line x1="178.50" y1="76.00" x2="183.31" y2="84.34" stroke-width="3.91" stroke-linecap="round"/><line x1="178.50" y1="76.00" x2="173.69" y2="84.34" stroke-width="3.91" stroke-linecap="round"/><line x1="178.50" y1="76.00" x2="168.88" y2="76.00" stroke-width="3.91" stroke-linecap="round"/><line x1="178.50" y1="76.00" x2="173.69" y2="67.66" stroke-width="3.91" stroke-linecap="round"/><line x1="178.50" y1="76.00" x2="183.31" y2="67.66" stroke-width="3.91" stroke-linecap="round"/></g>
  <g><circle cx="188.13" cy="76.00" r="4.14"/><circle cx="183.31" cy="84.34" r="4.14"/><circle cx="173.69" cy="84.34" r="4.14"/><circle cx="168.88" cy="76.00" r="4.14"/><circle cx="173.69" cy="67.66" r="4.14"/><circle cx="183.31" cy="67.66" r="4.14"/><circle cx="178.50" cy="76.00" r="3.68"/></g>
</svg>